<?xml version="1.0" encoding="iso-8859-1"?>

<!DOCTYPE svg PUBLIC "-//W3C//DTD SVG 1.1//EN" "http://www.w3.org/Graphics/SVG/1.1/DTD/svg11.dtd">
<!-- Uploaded to: SVG Repo, www.svgrepo.com, Generator: SVG Repo Mixer Tools -->
<svg height="800px" width="800px" version="1.1" id="_x34_" xmlns="http://www.w3.org/2000/svg" xmlns:xlink="http://www.w3.org/1999/xlink" 
	 viewBox="0 0 512 512"  xml:space="preserve">
<g>
	<path style="fill:#F5BAAD;" d="M45.334,230.381c-18.877,0-20.453,0-31.465,0c-11.012,0-20.453,15.73-7.865,28.318
		c12.589,12.583,18.883,22.023,18.883,22.023L45.334,230.381z"/>
	<path style="fill:#F5BAAD;" d="M482.717,304.324c-2.777,13.887-10.804,56.007-14.159,66.078
		c-6.294,18.883-12.874,24.192-24.775,31.855c-6.548,4.218-13.193,8.208-19.948,12.095l29.033-136.089
		C468.604,284.305,485.721,289.282,482.717,304.324z"/>
	<g>
		<path style="fill:#FADFDC;" d="M450.7,277.44c-25.087-9.935-30.914-41.751-56.643-77.882
			c-20.979-29.519-58.382-57.746-108.79-69.141c-12.51-2.855-25.794-4.653-39.862-5.197c-11.622-0.441-22.764-0.331-33.445,0.272
			c-31.413,1.771-58.804,7.872-82.45,17.099c-87.129,33.983-123.5,110.541-123.5,170.221c0,41.251,14.73,75.753,37.688,102.663
			l-0.733-0.24c8.663,11.018,37.481,51.374,44.515,70.017h67.986v-6.275c11.07,2.193,22.16,3.471,33.042,3.75
			c7.865,0.214,15.697,0.104,23.451-0.221c19.221-0.805,37.916-3.095,55.202-6.216v8.961h72.45
			c4.537-11.278,10.837-26.099,17.327-36.786c24.327-11.518,46.228-22.232,66.902-34.1l29.026-136.103
			C452.141,277.978,451.408,277.719,450.7,277.44z"/>
		<path style="fill:#F5BAAD;" d="M333.254,500.988c-3.147,6.295-7.871,11.012-22.03,11.012c-14.16,0-22.024,0-31.466,0
			c-9.435,0-12.582-9.442-12.582-20.453c0-1.68,0-3.841,0-6.295h72.437C336.48,493.032,334.183,499.132,333.254,500.988z"/>
		<path style="fill:#F5BAAD;" d="M311.224,500.203c7.495,0,9.558-1.31,10.739-3.147h-42.581c0.26,1.538,0.603,2.557,0.876,3.147
			H311.224z"/>
		<path style="fill:#F5BAAD;" d="M155.467,491.547c0,11.012-2.953,20.453-11.811,20.453s-16.242,0-29.531,0
			c-13.284,0-17.715-4.717-20.668-11.012c-0.876-1.856-3.03-7.956-5.97-15.736h67.98
			C155.467,487.705,155.467,489.866,155.467,491.547z"/>
		<path style="fill:#F5BAAD;" d="M142.521,500.203c0.253-0.662,0.545-1.687,0.772-3.147h-38.623
			c1.058,1.927,2.648,3.147,9.455,3.147H142.521z"/>
	</g>
	<circle style="fill:#F3A7A8;" cx="332.664" cy="372.173" r="41.102"/>
	<path style="fill:#FFFFFF;" d="M346.628,299.996c0,16.294,13.205,29.5,29.5,29.5c16.287,0,29.499-13.205,29.499-29.5
		c0-16.287-13.212-29.499-29.499-29.499C359.834,270.497,346.628,283.708,346.628,299.996z"/>
	<path style="fill:#604C3F;" d="M353.228,291.742c0,10.688,8.67,19.35,19.357,19.35c10.688,0,19.356-8.663,19.356-19.35
		c0-10.694-8.669-19.357-19.356-19.357C361.898,272.385,353.228,281.048,353.228,291.742z"/>
	<path style="fill:#CBAA9E;" d="M129.511,142.591v12.27h0.986c27.618-11.303,60.959-18.124,100.749-18.124
		c4.51,0,9.111,0.091,13.712,0.286c13.854,0.519,27.351,2.401,40.31,5.516v-12.122c-12.511-2.855-25.794-4.653-39.862-5.198
		C199.6,123.474,161.203,130.222,129.511,142.591z"/>
	<g>
		<path style="fill:#FFFFFF;" d="M67.157,264.3l-3.965-1.103l3.913,1.278L67.157,264.3l-3.965-1.103l3.913,1.278l-0.889-0.292
			l0.882,0.312l0.007-0.02l-0.889-0.292l0.882,0.312c0.007-0.02,0.149-0.403,0.415-0.961c0.493-1.057,1.376-2.738,2.564-4.737
			c2.096-3.517,5.139-8.04,8.916-12.887c5.671-7.281,13.03-15.308,21.388-22.193c8.351-6.911,17.683-12.621,27.177-15.755
			c7.579-2.518,11.686-10.707,9.168-18.293c-2.518-7.586-10.707-11.693-18.286-9.175c-11.596,3.854-21.959,9.85-31.096,16.671
			c-13.698,10.252-24.704,22.387-32.764,33.023c-4.029,5.334-7.307,10.285-9.824,14.574c-1.253,2.155-2.323,4.134-3.219,6.003
			c-0.447,0.941-0.857,1.849-1.233,2.784c-0.37,0.941-0.714,1.888-1.032,3.024c-2.135,7.696,2.375,15.671,10.084,17.806
			C57.054,276.512,65.022,271.996,67.157,264.3z"/>
	</g>
	<path style="fill:#F5BAAD;" d="M303.151,170.708c7.482-11.648,16.463-32.354,26.93-40.122c10.473-7.76,29.914,0,29.914,11.654
		c0,11.648,0,32.355,0,44.002c0,11.648-32.906,18.118-50.855,11.648C291.186,191.421,303.151,170.708,303.151,170.708z"/>
	<g>
		<path style="fill:#E7BE56;" d="M294.56,82.599c0,17.32-5.36,33.419-14.49,46.702c-2.55,3.712-5.405,7.202-8.52,10.46
			c-8.683-1.493-17.56-2.414-26.599-2.738c-0.519-0.026-1.038-0.052-1.557-0.052c-4.082-0.163-8.163-0.234-12.154-0.234
			c-6.606,0-13.024,0.188-19.279,0.565l-25.723,2.602c-9.721,1.434-18.954,3.322-27.734,5.613c-3.42-2.9-6.606-6.113-9.533-9.533
			c-12.245-14.419-19.61-33.042-19.61-53.386c0-45.546,37.053-82.599,82.6-82.599C257.508,0,294.56,37.053,294.56,82.599z"/>
		<g>
			<path style="fill:#FBE4AD;" d="M274.781,82.599c0,16.853-6.632,32.121-17.436,43.399c-4.089,4.296-8.78,8.001-13.951,10.973
				c-4.082-0.163-8.163-0.234-12.154-0.234c-6.606,0-13.024,0.188-19.279,0.565l-25.723,2.602
				c-5.406-2.414-10.408-5.574-14.873-9.37c-0.681-0.571-1.343-1.155-2.005-1.778c-0.046-0.039-0.091-0.09-0.143-0.136
				c-3.043-2.835-5.827-5.951-8.254-9.351c-0.565-0.753-1.09-1.557-1.609-2.336c-0.753-1.129-1.46-2.31-2.122-3.491
				c-0.377-0.662-0.753-1.343-1.084-2.024c-0.143-0.234-0.286-0.5-0.376-0.734c-0.377-0.733-0.733-1.46-1.064-2.199
				c-0.403-0.87-0.779-1.74-1.11-2.635c-0.234-0.546-0.448-1.116-0.636-1.661c-0.357-0.961-0.688-1.934-0.993-2.92
				c-0.169-0.474-0.305-0.947-0.422-1.441c-0.143-0.448-0.26-0.895-0.383-1.369c-0.019-0.046-0.045-0.098-0.045-0.163
				c-0.189-0.662-0.331-1.324-0.474-2.011c-0.117-0.441-0.208-0.922-0.279-1.389c-0.124-0.454-0.215-0.895-0.26-1.369v-0.02
				c-0.097-0.545-0.188-1.064-0.26-1.609c-0.097-0.52-0.168-1.039-0.214-1.558c-0.097-0.662-0.169-1.324-0.214-1.985
				c-0.019-0.091-0.045-0.208-0.019-0.325c-0.098-0.688-0.143-1.349-0.169-2.037c-0.072-1.129-0.091-2.259-0.091-3.394
				c0-34.69,28.13-62.821,62.821-62.821c1.136,0,2.264,0.026,3.4,0.091c0.682,0.026,1.344,0.078,2.025,0.169
				c0.117-0.026,0.24,0,0.331,0.026c0.545,0.039,1.09,0.091,1.629,0.162c0.098,0,0.169,0,0.26,0.02
				c0.591,0.078,1.181,0.142,1.771,0.24c0.071,0,0.162,0.019,0.234,0.045c0.259,0.026,0.499,0.072,0.759,0.117
				c0.072,0,0.117,0,0.188,0.026c0.539,0.071,1.064,0.188,1.583,0.312c0.513,0.065,1.013,0.181,1.506,0.298
				c0.688,0.143,1.35,0.286,2.011,0.48c0.065,0,0.117,0.019,0.162,0.038c0.474,0.124,0.922,0.241,1.369,0.377
				c0.493,0.123,0.967,0.266,1.441,0.428c0.986,0.312,1.96,0.636,2.926,0.993c0.539,0.189,1.11,0.403,1.649,0.636
				c0.967,0.383,1.934,0.779,2.88,1.227c0.656,0.286,1.318,0.617,1.96,0.948c0.233,0.091,0.493,0.233,0.726,0.376
				c0.688,0.331,1.369,0.708,2.031,1.084c0.286,0.143,0.545,0.305,0.824,0.474c0.474,0.26,0.922,0.545,1.37,0.831
				c0.195,0.117,0.383,0.234,0.571,0.376c0.26,0.163,0.539,0.325,0.798,0.494c0.358,0.233,0.708,0.467,1.064,0.726
				c0.234,0.143,0.448,0.286,0.662,0.48c0.493,0.298,0.993,0.681,1.486,1.058c0.279,0.188,0.565,0.422,0.85,0.636
				c1.155,0.902,2.29,1.843,3.374,2.809c0.733,0.636,1.415,1.298,2.102,1.986c0.707,0.681,1.389,1.362,2.051,2.096
				c0.071,0.045,0.117,0.124,0.162,0.162C268.461,51.211,274.781,66.15,274.781,82.599z"/>
			<path style="fill:#D4A948;" d="M152.697,86.162c0-34.697,28.13-62.827,62.827-62.827c16.437,0,31.401,6.326,42.594,16.664
				c-11.473-12.433-27.903-20.22-46.157-20.22c-34.697,0-62.821,28.124-62.821,62.821c0,18.254,7.787,34.685,20.22,46.157
				C159.023,117.563,152.697,102.605,152.697,86.162z"/>
		</g>
		<g>
			<path style="fill:#D4A948;" d="M238.624,56.377c-0.279-0.279-0.584-0.565-0.87-0.844c-0.071-0.078-0.116-0.117-0.162-0.169
				c-4.51-4.01-10.551-6.515-17.092-6.489h-23.737c-2.245,0-4.439,0.896-6.041,2.505c-1.583,1.577-2.504,3.777-2.504,6.035v62.659
				c0,1.868,0.59,3.614,1.629,5.009c0.617,0.87,1.395,1.596,2.29,2.168c1.324,0.869,2.926,1.369,4.627,1.369
				c2.356,0,4.458-0.941,6.016-2.479l0.026-0.02c1.558-1.557,2.498-3.685,2.498-6.047v-19.941h15.197
				c7.06,0,13.523-2.874,18.124-7.508c4.627-4.62,7.508-11.064,7.508-18.117C246.132,67.447,243.251,60.984,238.624,56.377z
				 M226.541,68.459c1.558,1.558,2.505,3.66,2.505,6.048c0,2.382-0.948,4.458-2.505,6.035c-1.577,1.557-3.653,2.504-6.041,2.504
				h-15.197V65.961h15.197c1.914,0,3.64,0.617,5.055,1.681C225.906,67.875,226.236,68.154,226.541,68.459z"/>
			<path style="fill:#E7BE56;" d="M237.755,55.533c-0.071-0.078-0.116-0.117-0.162-0.169c-0.285-0.305-0.571-0.61-0.85-0.896
				c-4.627-4.626-11.096-7.501-18.124-7.501h-23.744c-2.245,0-4.465,0.915-6.041,2.498c-1.609,1.603-2.505,3.796-2.505,6.042v62.659
				c0,2.829,1.369,5.36,3.517,6.917c1.421,1.038,3.141,1.648,5.029,1.648c4.718,0,8.54-3.848,8.54-8.565V98.244h15.204
				c7.027,0,13.497-2.881,18.124-7.501c4.62-4.627,7.501-11.096,7.501-18.15C244.244,66.078,241.765,60.062,237.755,55.533z
				 M203.415,64.047h15.204c2.382,0.026,4.458,0.947,6.035,2.504c0.331,0.331,0.642,0.707,0.902,1.09
				c1.012,1.389,1.603,3.089,1.603,4.951c0,2.408-0.941,4.484-2.504,6.067c-1.577,1.557-3.653,2.479-6.035,2.498h-6.658
				l-6.657-0.019h-1.888V64.047z"/>
		</g>
	</g>
	<path style="opacity:0.22;fill:#FFFFFF;" d="M211.961,0v137.302l-25.723,2.602c-9.721,1.434-18.954,3.322-27.734,5.613
		c-3.42-2.9-6.606-6.113-9.533-9.533c-12.245-14.419-19.61-33.042-19.61-53.386C129.361,37.053,166.414,0,211.961,0z"/>
</g>
</svg>